<svg id="Capa_1" enable-background="new 0 0 512 512" height="512" viewBox="0 0 512 512" width="512" xmlns="http://www.w3.org/2000/svg"><g><g><path d="m198.255 133.067c-35.523 16.512-60.152 52.513-60.152 94.266v58.347l117.897 101.345 23.847-128.176-23.847-110.785s-44.449-21.177-57.745-14.997z" fill="#8ee5c7"/><path d="m256 143.18v243.845l3.04 2.613 114.857-103.958v-58.347c0-41.451-24.274-77.233-59.383-93.905-13.492-6.407-58.514 9.752-58.514 9.752z" fill="#69caaa"/></g><g><path d="m235.794 414.078v-30.855c0-41.601-24.45-77.491-59.763-94.084-13.395-6.294-102.235-6.443-115.41-.398-35.775 16.412-60.621 52.545-60.621 94.482v30.855z" fill="#5d6898"/><g><path d="m176.214 289.232c-13.443-6.349-28.463-9.906-44.316-9.906h-28c-15.853 0-30.874 3.556-44.316 9.906l58.317 58.317z" fill="#febfb5"/></g><g><g><g><path d="m117.897 289.234c-36.763 0-66.672-29.909-66.672-66.672s29.909-66.672 66.672-66.672 66.672 29.909 66.672 66.672-29.909 66.672-66.672 66.672z" fill="#fee1dc"/></g></g></g></g><g><path d="m512 414.078v-30.855c0-41.688-24.553-77.642-59.986-94.189-13.338-6.229-102.46-6.234-115.79-.014-35.45 16.541-60.017 52.503-60.017 94.203v30.855z" fill="#80eaff"/><g><path d="m452.42 289.232c-13.443-6.349-28.463-9.906-44.316-9.906h-28c-15.853 0-30.874 3.556-44.316 9.906l58.317 58.317z" fill="#febfb5"/></g><g><g><g><path d="m394.103 289.234c-36.763 0-66.672-29.909-66.672-66.672s29.909-66.672 66.672-66.672 66.672 29.909 66.672 66.672-29.908 66.672-66.672 66.672z" fill="#fee1dc"/></g></g></g></g><g><path d="m242 123.436c-15.853 0-30.874 3.556-44.316 9.906l58.316 58.317 9.975-35.855-9.975-32.368z" fill="#febfb5"/><path d="m270 123.436h-14v68.222l58.317-58.317c-13.443-6.348-28.464-9.905-44.317-9.905z" fill="#fd9683"/></g><g><path d="m189.328 66.672c0 36.763 29.909 66.672 66.672 66.672l17.902-62.092-17.902-71.252c-36.763 0-66.672 29.909-66.672 66.672z" fill="#fee1dc"/><path d="m256 0v133.345c36.763 0 66.672-29.909 66.672-66.672s-29.909-66.673-66.672-66.673z" fill="#febfb5"/></g><g><g><path d="m179.774 420.35c0 42.435 33.99 76.91 76.226 77.74l18.893-78.236-18.893-77.244c-42.237.83-76.226 35.304-76.226 77.74z" fill="#edf5ff"/><path d="m257.553 342.57c-.521 0-1.035.029-1.553.039v155.481c.519.01 1.032.039 1.553.039 42.957 0 77.78-34.823 77.78-77.78 0-42.956-34.823-77.779-77.78-77.779z" fill="#d6e8fd"/></g><g><path d="m223.545 472.987 32.455-32.456 10.966-21.668-10.966-20.686-53.646 53.646c-5.774-9.489-9.102-20.623-9.102-32.52 0-34.599 28.148-62.747 62.748-62.747l12.948-10.022-12.948-19.929c-51.114 0-92.698 41.584-92.698 92.697 0 51.114 41.584 92.698 92.698 92.698l12.948-12.88-12.948-17.069c-11.87 0-22.98-3.315-32.455-9.064z" fill="#f37"/><path d="m256 326.605v29.95c11.897 0 23.031 3.328 32.52 9.102l-32.52 32.52v42.355l53.684-53.684c5.75 9.475 9.064 20.585 9.064 32.455 0 34.599-28.148 62.748-62.748 62.748v29.949c51.114 0 92.698-41.584 92.698-92.698 0-51.113-41.584-92.697-92.698-92.697z" fill="#cc295f"/></g></g></g></svg>