<svg id="Capa_1" enable-background="new 0 0 512 512" height="512" viewBox="0 0 512 512" width="512" xmlns="http://www.w3.org/2000/svg"><g><g><g><g><path d="m406 481h-15c-24.814 0-45-20.187-45-45v-30c0-8.292 6.708-15 15-15h75c8.292 0 15 6.708 15 15v30c0 24.813-20.188 45-45 45z" fill="#351b33"/></g></g><g><g><path d="m121 481h-15c-24.814 0-45-20.187-45-45v-30c0-8.292 6.708-15 15-15h75c8.292 0 15 6.708 15 15v30c0 24.813-20.188 45-45 45z" fill="#4b2746"/></g></g></g><path d="m151 31c-16.569 0-30 13.431-30 30s13.431 30 30 30l42.789 15 32.211-15 30-30-30-30z" fill="#27b2eb"/><path d="m361 31h-75l-30 30 30 30 33.552 15 41.448-15c16.569 0 30-13.431 30-30s-13.431-30-30-30z" fill="#cc2929"/><path d="m256 31h-30v75h30 30v-75z" fill="#d0e4e7"/><path d="m256 31h30v75h-30z" fill="#a8d3d8"/><path d="m431.914 147.82c-8.353-33.456-38.277-56.82-72.76-56.82h-103.154-103.156c-34.482 0-64.407 23.364-72.758 56.82l-23.29 93.18h199.204 199.203z" fill="#4b2746"/><path d="m431.914 147.82c-8.353-33.456-38.277-56.82-72.76-56.82h-103.154v150h199.203z" fill="#351b33"/><path d="m402.82 155.086c-5.023-20.067-22.984-34.086-43.666-34.086h-103.154-103.156c-20.681 0-38.643 14.019-43.664 34.086l-21.477 85.914h168.297 168.296z" fill="#edf5ff"/><path d="m402.82 155.086c-5.023-20.067-22.984-34.086-43.666-34.086h-103.154v120h168.296z" fill="#d0e4e7"/><path d="m436 211h-180-180c-41.353 0-76 33.648-76 75v90c0 24.813 21.186 45 46 45h210 210c24.812 0 46-20.187 46-45v-90c0-41.352-34.649-75-76-75z" fill="#613d5c"/><path d="m512 376v-90c0-41.352-34.649-75-76-75h-180v210h210c24.812 0 46-20.187 46-45z" fill="#4b2746"/><g fill="#4b2746"><path d="m226 301h30 30c8.292 0 15-6.708 15-15s-6.708-15-15-15h-30-30c-8.292 0-15 6.708-15 15s6.708 15 15 15z"/><path d="m286 331h-30-30c-8.292 0-15 6.708-15 15s6.708 15 15 15h30 30c8.292 0 15-6.708 15-15s-6.708-15-15-15z"/></g><path d="m301 286c0-8.292-6.708-15-15-15h-30v30h30c8.292 0 15-6.708 15-15z" fill="#351b33"/><path d="m301 346c0-8.292-6.708-15-15-15h-30v30h30c8.292 0 15-6.708 15-15z" fill="#351b33"/><path d="m361 346c-16.539 0-30-13.461-30-30s13.461-30 30-30h60c16.539 0 30 13.461 30 30s-13.461 30-30 30z" fill="#fabe2c"/><path d="m91 346c-16.539 0-30-13.461-30-30s13.461-30 30-30h60c16.539 0 30 13.461 30 30s-13.461 30-30 30z" fill="#fed843"/></g></svg>