<svg id="Capa_1" enable-background="new 0 0 512 512" height="512" viewBox="0 0 512 512" width="512" xmlns="http://www.w3.org/2000/svg"><g><g><path d="m286 392c-8.292 0-15-6.708-15-15s6.708-15 15-15c20.082 0 37.134-13.227 42.906-31.422-25.65-4.32-48.897-19.192-65.098-39.877-11.397 6.711-24.375 10.299-37.808 10.299-36.667 0-67.266-26.439-73.74-61.26-34.821-6.474-61.26-37.074-61.26-73.74 0-36.534 26.25-67.047 60.878-73.668 6.723-51.459 50.859-92.332 104.122-92.332 32.256 0 62.46 16.102 82.19 41.299 11.397-6.711 24.375-10.299 37.81-10.299 36.665 0 67.266 26.439 73.74 61.26 34.821 6.474 62.26 37.074 62.26 73.74 0 36.417-27.089 66.855-61.558 73.608-6.942 84.639-78.046 152.392-164.442 152.392z" fill="#edf5ff"/></g><path d="m286 362h-45l-12.63 30-17.37-30h-121l-14.686 30-15.314-30h-45c-8.292 0-15 6.708-15 15v60 60c0 8.292 6.708 15 15 15h45l19.103-30 10.897 30h121l15-30 15 30h45c8.292 0 15-6.708 15-15v-60-60c0-8.292-6.708-15-15-15z" fill="#4b2746"/><path d="m15 512h45l19.103-30 10.897 30h121l15-30 15 30h45c8.292 0 15-6.708 15-15v-60h-301v60c0 8.292 6.708 15 15 15z" fill="#351b33"/><g fill="#66995c"><path d="m60 437v75h30v-75-75h-30z"/><path d="m211 362v75 75h30v-75-75z"/></g><g fill="#4a8040"><path d="m60 437h30v75h-30z"/><path d="m211 437h30v75h-30z"/></g></g></svg>