<?xml version="1.0" encoding="UTF-8" standalone="no"?>
<svg
   xmlns:dc="http://purl.org/dc/elements/1.1/"
   xmlns:cc="http://creativecommons.org/ns#"
   xmlns:rdf="http://www.w3.org/1999/02/22-rdf-syntax-ns#"
   xmlns:svg="http://www.w3.org/2000/svg"
   xmlns="http://www.w3.org/2000/svg"
   id="svg2327"
   version="1.1"
   viewBox="0 0 26.458 18.5206"
   height="70"
   width="100">
  <defs
     id="defs2321" />
  <metadata
     id="metadata2324">
    <rdf:RDF>
      <cc:Work
         rdf:about="">
        <dc:format>image/svg+xml</dc:format>
        <dc:type
           rdf:resource="http://purl.org/dc/dcmitype/StillImage" />
        <dc:title></dc:title>
      </cc:Work>
    </rdf:RDF>
  </metadata>
  <g
     id="layer1">
    <g
       transform="translate(-1.2990171,-3.5667817)"
       id="g3399">
      <g
         transform="matrix(0.31100803,0,0,-0.30303707,9.5811136,20.646734)"
         id="g961">
        <path
           id="path963"
           style="fill:#ffdd00;fill-opacity:1;fill-rule:nonzero;stroke:none"
           d="m 0,0 c 0,0 -9.072,15.584 13.209,15.584 13.335,0 39.291,-10.419 42.194,9.909 2.127,14.882 -8.822,22.899 -16.454,24.624 -7.633,1.724 -30.352,2.237 -41.405,0 C -11.892,48.206 -23.86,39.124 -23.86,23.334 -23.86,7.545 -11.229,0.351 0,0" />
      </g>
      <g
         transform="matrix(0.31100803,0,0,-0.30303707,13.376377,7.3536494)"
         id="g965">
        <path
           id="path967"
           style="fill:#000000;fill-opacity:1;fill-rule:evenodd;stroke:none"
           d="m 0,0 c 0.256,-0.658 0.027,-1.16 -0.46,-1.623 -0.716,-0.675 -1.393,-1.391 -2.094,-2.081 -0.522,-0.511 -1.175,-0.548 -1.63,-0.11 -0.447,0.429 -0.493,1.106 -0.062,1.552 0.819,0.845 1.654,1.675 2.496,2.497 0.392,0.383 0.862,0.354 1.34,0.173 C -0.273,0.272 -0.138,0.135 0,0" />
      </g>
      <g
         transform="matrix(0.31100803,0,0,-0.30303707,8.5860903,7.2299498)"
         id="g969">
        <path
           id="path971"
           style="fill:#000000;fill-opacity:1;fill-rule:evenodd;stroke:none"
           d="M 0,0 C 0.637,0.258 1.138,0.085 1.602,-0.411 2.319,-1.176 3.082,-1.896 3.816,-2.645 4.188,-3.024 4.233,-3.621 3.948,-4.033 3.644,-4.479 3.072,-4.655 2.589,-4.422 2.401,-4.332 2.229,-4.19 2.079,-4.043 1.397,-3.375 0.742,-2.684 0.051,-2.031 -0.438,-1.569 -0.66,-1.064 -0.408,-0.408 -0.271,-0.273 -0.136,-0.135 0,0" />
      </g>
      <g
         transform="matrix(0.31100803,0,0,-0.30303707,10.649894,7.9865122)"
         id="g973">
        <path
           id="path975"
           style="fill:#000000;fill-opacity:1;fill-rule:evenodd;stroke:none"
           d="M 0,0 C -0.083,0.289 -0.229,0.573 -0.236,0.863 -0.265,1.974 -0.254,3.086 -0.245,4.198 -0.238,4.877 0.231,5.364 0.856,5.367 1.479,5.371 1.961,4.88 1.969,4.208 1.977,3.085 1.974,1.963 1.967,0.841 1.966,0.342 1.728,-0.024 1.271,-0.214 0.837,-0.394 0.434,-0.302 0.091,0.024 0.061,0.017 0.03,0.009 0,0" />
      </g>
      <g
         transform="matrix(0.31100803,0,0,-0.30303707,8.3783754,14.107891)"
         id="g977">
        <path
           id="path979"
           style="fill:#000000;fill-opacity:1;fill-rule:nonzero;stroke:none"
           d="M 0,0 8.142,19.03 16.327,0 h -4.4 L 8.02,9.376 4.031,0 Z" />
      </g>
      <g
         transform="matrix(0.31100803,0,0,-0.30303707,15.894795,12.412945)"
         id="g981">
        <path
           id="path983"
           style="fill:#000000;fill-opacity:1;fill-rule:nonzero;stroke:none"
           d="M 0,0 C 0,1.687 -1.008,2.633 -2.323,2.633 -3.66,2.633 -4.667,1.687 -4.667,0 c 0,-1.707 1.007,-2.672 2.344,-2.672 C -1.008,-2.672 0,-1.707 0,0 M 3.846,9.665 V -5.593 H 0.123 v 1.111 c -0.739,-0.884 -1.83,-1.295 -3.269,-1.295 -3.043,0 -5.49,2.22 -5.49,5.777 0,3.537 2.447,5.738 5.49,5.738 1.296,0 2.344,-0.371 3.084,-1.153 v 5.08 z" />
      </g>
      <g
         transform="matrix(0.31100803,0,0,-0.30303707,17.480213,9.7273385)"
         id="g985">
        <path
           id="path987"
           style="fill:#000000;fill-opacity:1;fill-rule:nonzero;stroke:none"
           d="m 0,0 c 0,1.172 0.946,2.078 2.386,2.078 1.439,0 2.385,-0.844 2.385,-2.016 0,-1.233 -0.946,-2.138 -2.385,-2.138 C 0.946,-2.076 0,-1.171 0,0" />
      </g>
      <g
         transform="matrix(0.31100803,0,0,-0.30303707,21.854347,10.730391)"
         id="g989">
        <path
           id="path991"
           style="fill:#000000;fill-opacity:1;fill-rule:nonzero;stroke:none"
           d="m 0,0 -2.756,-6.806 -2.581,6.422 C -6.736,-0.6 -8.052,-0.66 -9.234,-0.629 l 4.505,-10.66 c -0.33,-0.657 -0.761,-0.945 -1.522,-0.945 -0.617,0 -1.274,0.246 -1.727,0.658 l -1.358,-2.736 c 0.74,-0.616 2.057,-1.006 3.23,-1.006 2.2,0 3.845,0.842 5.016,3.721 L 3.722,0 Z" />
      </g>
      <g
         transform="matrix(0.31100803,0,0,-0.30303707,17.614452,10.750665)"
         id="g993">
        <path
           id="path995"
           style="fill:#000000;fill-opacity:1;fill-rule:nonzero;stroke:none"
           d="M 0,0 V -11.079 H 3.909 V -0.543 C 2.282,-0.464 0.937,-0.223 0,0" />
      </g>
    </g>
  </g>
</svg>
