<?xml version="1.0" encoding="UTF-8" standalone="no"?>
<svg
   xmlns:dc="http://purl.org/dc/elements/1.1/"
   xmlns:cc="http://creativecommons.org/ns#"
   xmlns:rdf="http://www.w3.org/1999/02/22-rdf-syntax-ns#"
   xmlns:svg="http://www.w3.org/2000/svg"
   xmlns="http://www.w3.org/2000/svg"
   id="svg2327"
   version="1.1"
   viewBox="0 0 26.458 26.458"
   height="100"
   width="100">
  <defs
     id="defs2321" />
  <metadata
     id="metadata2324">
    <rdf:RDF>
      <cc:Work
         rdf:about="">
        <dc:format>image/svg+xml</dc:format>
        <dc:type
           rdf:resource="http://purl.org/dc/dcmitype/StillImage" />
        <dc:title></dc:title>
      </cc:Work>
    </rdf:RDF>
  </metadata>
  <g
     id="layer1">
    <g
       id="g2097"
       transform="matrix(0.54497497,0,0,-0.52182269,13.229,14.690104)">
      <path
         d="M 0,0 C -1.54,0 -2.8,1.26 -2.8,2.8 -2.8,4.34 -1.54,5.6 0,5.6 1.54,5.6 2.8,4.34 2.8,2.8 2.8,1.26 1.54,0 0,0 Z"
         style="fill:none;stroke:#999999;stroke-width:3;stroke-linecap:butt;stroke-linejoin:miter;stroke-miterlimit:10;stroke-dasharray:none;stroke-opacity:1"
         id="path2099" />
    </g>
    <g
       id="g2101"
       transform="matrix(0.54497497,0,0,-0.52182269,17.087003,13.716121)">
      <path
         d="M 0,0 C 0.038,0.305 0.066,0.61 0.066,0.934 0.066,1.257 0.038,1.562 0,1.867 l 2.01,1.572 c 0.181,0.143 0.229,0.4 0.115,0.61 L 0.219,7.346 C 0.133,7.498 -0.029,7.583 -0.2,7.583 -0.257,7.583 -0.314,7.574 -0.362,7.555 L -2.734,6.603 c -0.496,0.38 -1.03,0.695 -1.611,0.933 l -0.362,2.525 c -0.028,0.229 -0.229,0.4 -0.466,0.4 h -3.811 c -0.239,0 -0.439,-0.171 -0.467,-0.4 L -9.813,7.536 c -0.582,-0.238 -1.115,-0.562 -1.61,-0.933 l -2.373,0.952 c -0.057,0.019 -0.114,0.028 -0.171,0.028 -0.162,0 -0.324,-0.085 -0.41,-0.237 l -1.905,-3.297 c -0.124,-0.21 -0.067,-0.467 0.114,-0.61 l 2.01,-1.572 c -0.038,-0.305 -0.067,-0.619 -0.067,-0.933 0,-0.315 0.029,-0.629 0.067,-0.934 l -2.01,-1.572 c -0.181,-0.143 -0.228,-0.4 -0.114,-0.61 l 1.905,-3.297 c 0.086,-0.152 0.248,-0.237 0.419,-0.237 0.058,0 0.115,0.009 0.162,0.028 l 2.373,0.953 c 0.495,-0.381 1.028,-0.696 1.61,-0.934 l 0.362,-2.524 c 0.028,-0.229 0.228,-0.401 0.467,-0.401 h 3.811 c 0.237,0 0.438,0.172 0.466,0.401 l 0.362,2.524 c 0.581,0.238 1.115,0.562 1.611,0.934 l 2.372,-0.953 c 0.057,-0.019 0.114,-0.028 0.171,-0.028 0.162,0 0.324,0.085 0.41,0.237 l 1.906,3.297 c 0.114,0.21 0.066,0.467 -0.115,0.61 z"
         style="fill:none;stroke:#999999;stroke-width:3;stroke-linecap:butt;stroke-linejoin:miter;stroke-miterlimit:10;stroke-dasharray:none;stroke-opacity:1"
         id="path2103" />
    </g>
  </g>
</svg>
