<?xml version="1.0" encoding="UTF-8" standalone="no"?>
<svg
   xmlns:dc="http://purl.org/dc/elements/1.1/"
   xmlns:cc="http://creativecommons.org/ns#"
   xmlns:rdf="http://www.w3.org/1999/02/22-rdf-syntax-ns#"
   xmlns:svg="http://www.w3.org/2000/svg"
   xmlns="http://www.w3.org/2000/svg"
   id="svg1042"
   version="1.1"
   viewBox="0 0 10.583333 13.229167"
   height="50"
   width="40">
  <defs
     id="defs1036" />
  <metadata
     id="metadata1039">
    <rdf:RDF>
      <cc:Work
         rdf:about="">
        <dc:format>image/svg+xml</dc:format>
        <dc:type
           rdf:resource="http://purl.org/dc/dcmitype/StillImage" />
        <dc:title></dc:title>
      </cc:Work>
    </rdf:RDF>
  </metadata>
  <g
     id="layer1">
    <path
       style="stroke-width:0.533358;fill:#ffffff"
       d="M 8.5998129,4.8639238 H 8.0511163 V 3.8270239 c 0,-1.430922 -1.2290797,-2.5922501 -2.7434817,-2.5922501 -1.514402,0 -2.743482,1.1613281 -2.743482,2.5922501 V 4.8639238 H 2.0154563 c -0.6035661,0 -1.09739282,0.466605 -1.09739282,1.0369 v 5.1845002 c 0,0.570296 0.49382672,1.036901 1.09739282,1.036901 h 6.5843566 c 0.6035658,0 1.0973926,-0.466605 1.0973926,-1.036901 V 5.9008238 c 0,-0.570295 -0.4938268,-1.0369 -1.0973926,-1.0369 z M 5.3076346,9.5299742 c -0.6035661,0 -1.0973928,-0.466605 -1.0973928,-1.0368993 0,-0.5702957 0.4938267,-1.0369007 1.0973928,-1.0369007 0.6035659,0 1.0973926,0.466605 1.0973926,1.0369007 0,0.5702943 -0.4938267,1.0368993 -1.0973926,1.0368993 z M 7.0085933,4.8639238 H 3.6066757 V 3.8270239 c 0,-0.8865495 0.7626881,-1.6071949 1.7009589,-1.6071949 0.9382708,0 1.7009587,0.7206454 1.7009587,1.6071949 z"
       id="path4" />
  </g>
</svg>
