<?xml version="1.0" encoding="UTF-8" standalone="no"?>
<svg
   xmlns:dc="http://purl.org/dc/elements/1.1/"
   xmlns:cc="http://creativecommons.org/ns#"
   xmlns:rdf="http://www.w3.org/1999/02/22-rdf-syntax-ns#"
   xmlns:svg="http://www.w3.org/2000/svg"
   xmlns="http://www.w3.org/2000/svg"
   xmlns:sodipodi="http://sodipodi.sourceforge.net/DTD/sodipodi-0.dtd"
   xmlns:inkscape="http://www.inkscape.org/namespaces/inkscape"
   inkscape:version="1.0 (4035a4fb49, 2020-05-01)"
   sodipodi:docname="rotate_left.svg"
   width="40"
   height="50"
   viewBox="0 0 10.583333 13.229167"
   version="1.1"
   id="svg1042">
  <sodipodi:namedview
     inkscape:current-layer="svg1042"
     inkscape:window-maximized="1"
     inkscape:window-y="0"
     inkscape:window-x="4480"
     inkscape:cy="34.206003"
     inkscape:cx="29.392092"
     inkscape:zoom="8.6974134"
     showgrid="false"
     id="namedview837"
     inkscape:window-height="1417"
     inkscape:window-width="2560"
     inkscape:pageshadow="2"
     inkscape:pageopacity="0"
     guidetolerance="10"
     gridtolerance="10"
     objecttolerance="10"
     borderopacity="1"
     bordercolor="#666666"
     pagecolor="#ffffff" />
  <defs
     id="defs1036" />
  <metadata
     id="metadata1039">
    <rdf:RDF>
      <cc:Work
         rdf:about="">
        <dc:format>image/svg+xml</dc:format>
        <dc:type
           rdf:resource="http://purl.org/dc/dcmitype/StillImage" />
        <dc:title></dc:title>
      </cc:Work>
    </rdf:RDF>
  </metadata>
  <path
     style="fill:#ffffff;stroke:none;stroke-width:0.599252"
     d="m 2.3138884,5.2135511 -0.834156,-0.86195 C 0.94729344,5.0557281 0.61599944,5.8691161 0.51542544,6.7128551 H 1.7104574 c 0.08282,-0.528097 0.289882,-1.044052 0.603431,-1.499304 z m -0.603431,2.713314 H 0.51542544 c 0.100574,0.843737 0.425952,1.657125 0.95839096,2.3612499 l 0.834156,-0.8619459 c -0.307633,-0.455253 -0.514693,-0.965139 -0.597515,-1.499304 z m 0.597515,3.2292709 c 0.686256,0.546305 1.484914,0.874088 2.307236,0.977277 v -1.23222 C 4.1005164,10.810133 3.6035734,10.60376 3.1598754,10.275977 Z M 5.7984084,2.5063051 V 0.64279806 l -2.691778,2.76187504 2.691778,2.701174 v -2.373391 c 1.6801397,0.291362 2.9579938,1.784596 2.9579938,3.587404 0,1.802804 -1.2778541,3.2960379 -2.9579938,3.5873999 v 1.226153 c 2.3368157,-0.297432 4.1411928,-2.3369699 4.1411928,-4.8135529 0,-2.476583 -1.8043771,-4.516122 -4.1411928,-4.813555 z"
     id="path4-3" />
</svg>
