<?xml version="1.0" encoding="UTF-8" standalone="no"?>
<svg
   xmlns:dc="http://purl.org/dc/elements/1.1/"
   xmlns:cc="http://creativecommons.org/ns#"
   xmlns:rdf="http://www.w3.org/1999/02/22-rdf-syntax-ns#"
   xmlns:svg="http://www.w3.org/2000/svg"
   xmlns="http://www.w3.org/2000/svg"
   id="svg1042"
   version="1.1"
   viewBox="0 0 10.583333 13.229167"
   height="50"
   width="40">
  <defs
     id="defs1036" />
  <metadata
     id="metadata1039">
    <rdf:RDF>
      <cc:Work
         rdf:about="">
        <dc:format>image/svg+xml</dc:format>
        <dc:type
           rdf:resource="http://purl.org/dc/dcmitype/StillImage" />
        <dc:title></dc:title>
      </cc:Work>
    </rdf:RDF>
  </metadata>
  <path
     style="stroke-width:0.580228;fill:#ffffff"
     d="M 7.2695321,3.7193848 4.6015161,1.1070242 V 2.8696506 C 2.2911906,3.1509821 0.4968763,5.0801101 0.4968763,7.4226227 c 0,2.3425126 1.7884501,4.2716403 4.1046398,4.5529723 V 10.81582 C 2.9362041,10.54023 1.6696293,9.127833 1.6696293,7.4226227 c 0,-1.7052124 1.2665748,-3.1176097 2.9318868,-3.3931995 V 6.2743315 Z M 9.8378646,6.848476 C 9.7381786,6.050416 9.4156727,5.2810606 8.8879332,4.6150514 L 8.0552783,5.4303391 C 8.371922,5.8609469 8.5712895,6.3489708 8.6533831,6.848476 Z m -4.0635933,3.961602 v 1.159775 C 6.5893338,11.872243 7.3809441,11.56221 8.0611424,11.045479 L 7.2167592,10.21871 c -0.439784,0.310038 -0.9323408,0.510989 -1.4424879,0.591368 z M 8.0552783,9.4206482 8.8879332,10.230192 C 9.4156727,9.5641849 9.7381806,8.7948295 9.8378646,7.9967673 H 8.6533831 C 8.5712939,8.4962747 8.371922,8.9842964 8.0552783,9.4206482 Z"
     id="path4" />
</svg>
