<?xml version="1.0" encoding="UTF-8" standalone="no"?>
<svg
   xmlns:dc="http://purl.org/dc/elements/1.1/"
   xmlns:cc="http://creativecommons.org/ns#"
   xmlns:rdf="http://www.w3.org/1999/02/22-rdf-syntax-ns#"
   xmlns:svg="http://www.w3.org/2000/svg"
   xmlns="http://www.w3.org/2000/svg"
   id="svg2327"
   version="1.1"
   viewBox="0 0 26.458 26.458"
   height="100"
   width="100">
  <defs
     id="defs2321" />
  <metadata
     id="metadata2324">
    <rdf:RDF>
      <cc:Work
         rdf:about="">
        <dc:format>image/svg+xml</dc:format>
        <dc:type
           rdf:resource="http://purl.org/dc/dcmitype/StillImage" />
        <dc:title></dc:title>
      </cc:Work>
    </rdf:RDF>
  </metadata>
  <g
     id="layer1">
    <g
       id="g1867"
       transform="matrix(0.35277332,0,0,-0.35277332,17.813466,7.6394831)">
      <path
         d="m 0,0 v -8.905 h -0.693 c -0.411,1.674 -0.867,2.877 -1.366,3.608 -0.502,0.732 -1.188,1.315 -2.061,1.75 -0.488,0.237 -1.341,0.356 -2.559,0.356 h -3.217 v -22.605 c 0,-1.371 0.073,-2.228 0.221,-2.57 0.148,-0.343 0.436,-0.643 0.867,-0.9 0.43,-0.257 1.017,-0.385 1.761,-0.385 h 0.867 v -2.038 h -13.67 v 2.038 h 0.868 c 0.757,0 1.366,0.138 1.828,0.415 0.334,0.184 0.597,0.501 0.79,0.949 0.141,0.316 0.211,1.146 0.211,2.491 v 22.605 h -3.158 c -1.758,0 -3.035,-0.383 -3.831,-1.147 -1.116,-1.067 -1.822,-2.59 -2.118,-4.567 h -0.731 V 0 Z"
         style="fill:#999999;fill-opacity:1;fill-rule:nonzero;stroke:none"
         id="path1869" />
    </g>
  </g>
</svg>
