<?xml version="1.0" encoding="UTF-8" standalone="no"?>
<svg
   xmlns:dc="http://purl.org/dc/elements/1.1/"
   xmlns:cc="http://creativecommons.org/ns#"
   xmlns:rdf="http://www.w3.org/1999/02/22-rdf-syntax-ns#"
   xmlns:svg="http://www.w3.org/2000/svg"
   xmlns="http://www.w3.org/2000/svg"
   id="svg1042"
   version="1.1"
   viewBox="0 0 10.583333 13.229167"
   height="50"
   width="40">
  <defs
     id="defs1036" />
  <metadata
     id="metadata1039">
    <rdf:RDF>
      <cc:Work
         rdf:about="">
        <dc:format>image/svg+xml</dc:format>
        <dc:type
           rdf:resource="http://purl.org/dc/dcmitype/StillImage" />
        <dc:title></dc:title>
      </cc:Work>
    </rdf:RDF>
  </metadata>
  <g
     id="layer1">
    <path
       id="path4-3"
       d="m 5.3123945,9.4909314 c 0.6026931,0 1.0958055,-0.4627007 1.0958055,-1.0282224 0,-0.5655249 -0.4931124,-1.0282256 -1.0958055,-1.0282256 -0.6026933,0 -1.095806,0.4627007 -1.095806,1.0282256 0,0.5655217 0.4931127,1.0282224 1.095806,1.0282224 z M 8.5998131,4.8639232 H 8.0519086 V 3.8357004 c 0,-1.4189488 -1.2273023,-2.5705595 -2.7395141,-2.5705595 -1.5122123,0 -2.7395146,1.1516107 -2.7395146,2.5705595 h 1.0410153 c 0,-0.8791313 0.7615854,-1.593747 1.6984993,-1.593747 0.9369139,0 1.6984988,0.7146157 1.6984988,1.593747 V 4.8639232 H 2.0249767 c -0.6026935,0 -1.09580623,0.4627007 -1.09580623,1.0282246 v 5.1411202 c 0,0.565523 0.49311273,1.028224 1.09580623,1.028224 h 6.5748364 c 0.6026917,0 1.0958044,-0.462701 1.0958044,-1.028224 V 5.8921478 c 0,-0.5655239 -0.4931127,-1.0282246 -1.0958044,-1.0282246 z m 0,6.1693448 H 2.0249767 V 5.8921478 h 6.5748364 z"
       style="stroke-width:0.530738;fill:#ffffff" />
  </g>
</svg>
