<?xml version="1.0" encoding="UTF-8" standalone="no"?>
<svg
   xmlns:dc="http://purl.org/dc/elements/1.1/"
   xmlns:cc="http://creativecommons.org/ns#"
   xmlns:rdf="http://www.w3.org/1999/02/22-rdf-syntax-ns#"
   xmlns:svg="http://www.w3.org/2000/svg"
   xmlns="http://www.w3.org/2000/svg"
   width="40"
   height="50"
   viewBox="0 0 10.583333 13.229167"
   version="1.1"
   id="svg1042">
  <defs
     id="defs1036" />
  <metadata
     id="metadata1039">
    <rdf:RDF>
      <cc:Work
         rdf:about="">
        <dc:format>image/svg+xml</dc:format>
        <dc:type
           rdf:resource="http://purl.org/dc/dcmitype/StillImage" />
        <dc:title></dc:title>
      </cc:Work>
    </rdf:RDF>
  </metadata>
  <g
     id="layer1">
    <rect
       style="fill:none;stroke-width:0.432001;stroke:#ffffff"
       id="rect1605"
       width="9.1943016"
       height="11.72298"
       x="0.77053893"
       y="0.86364847" />
    <path
       style="fill:#ffffff;stroke:#ffffff;stroke-width:0.608531;stroke-linecap:butt;stroke-linejoin:miter;stroke-miterlimit:4;stroke-dasharray:none;stroke-opacity:1"
       d="m 6.4192244,2.0052324 c 0,0 2.5132063,3.068e-4 2.5132063,3.068e-4 0,0 0.021114,2.3301732 0.021114,2.3301732"
       id="path1607" />
    <path
       id="path1607-3"
       d="m 6.4192244,11.442535 c 0,0 2.5132063,-3.07e-4 2.5132063,-3.07e-4 0,0 0.021114,-2.3301724 0.021114,-2.3301724"
       style="fill:#ffffff;stroke:#ffffff;stroke-width:0.608531;stroke-linecap:butt;stroke-linejoin:miter;stroke-miterlimit:4;stroke-dasharray:none;stroke-opacity:1" />
    <path
       id="path1607-6"
       d="m 4.3785279,1.9631595 c 0,0 -2.5132063,3.068e-4 -2.5132063,3.068e-4 0,0 -0.021114,2.3301732 -0.021114,2.3301732"
       style="fill:#ffffff;stroke:#ffffff;stroke-width:0.608531;stroke-linecap:butt;stroke-linejoin:miter;stroke-miterlimit:4;stroke-dasharray:none;stroke-opacity:1" />
    <path
       style="fill:#ffffff;stroke:#ffffff;stroke-width:0.608531;stroke-linecap:butt;stroke-linejoin:miter;stroke-miterlimit:4;stroke-dasharray:none;stroke-opacity:1"
       d="m 4.3785279,11.400462 c 0,0 -2.5132063,-3.07e-4 -2.5132063,-3.07e-4 0,0 -0.021114,-2.3301723 -0.021114,-2.3301723"
       id="path1607-3-7" />
  </g>
</svg>
